<svg width="521" height="521" viewBox="0 0 521 521" fill="none" xmlns="http://www.w3.org/2000/svg">
<path d="M326.796 472.835C311.561 475.877 296.317 478.92 281.081 481.962C279.556 480.761 279.551 480.779 277.893 480.899C229.449 484.476 184.513 473.422 143.483 447.568C98.4411 419.177 67.347 379.574 50.5478 328.909C50.2805 328.099 50.7504 325.953 48.5161 326.805C45.4744 311.569 42.431 296.325 39.3892 281.09C40.6109 279.622 40.5939 279.625 40.4692 277.941C36.8643 230.111 47.6341 185.646 72.853 144.963C101.242 99.1638 141.158 67.5583 192.449 50.5459C193.259 50.2786 195.396 50.7501 194.545 48.5159C209.78 45.4742 225.024 42.4307 240.26 39.389C240.34 41.7771 242.141 40.5193 242.991 40.4553C266.382 38.5155 289.572 39.9883 312.22 46.061C390.416 67.0313 443.482 115.502 470.66 191.993C471.024 193.021 470.615 194.988 472.834 194.545C475.875 209.78 478.919 225.024 481.96 240.26C479.608 240.386 480.839 242.139 480.909 243.023C483.66 277.577 478.807 311.05 465.407 342.963C439.095 405.652 393.847 448.476 329.356 470.66C328.318 471.017 326.372 470.621 326.796 472.835ZM246.454 277.688C246.272 276.024 245.198 275.983 243.928 276.325C242.307 276.323 241.477 274.991 240.385 274.153C225.48 262.748 210.596 251.32 194.713 241.282C193.403 240.452 192.262 239.279 190.563 239.24C185.835 235.939 181.108 232.638 176.38 229.337C166.146 222.406 155.934 215.454 145.673 208.564C131.701 199.192 117.655 189.931 103.732 180.488C101.42 178.923 100.407 179.143 99.365 181.685C98.0107 185.003 96.1601 188.128 94.8345 191.458C77.2851 235.489 75.9982 279.901 92.8893 324.322C111.143 372.345 144.516 406.429 191.6 426.39C229.89 442.619 269.492 444.647 309.704 433.316C343.262 423.86 371.386 405.934 394.728 380.199C397.117 377.565 397.267 376.285 394.041 374.155C366.683 356.086 339.46 337.814 312.169 319.643C300.562 311.921 288.88 304.311 277.233 296.659C269.195 291.333 261.163 285.988 253.118 280.673C251.037 279.291 249.005 277.76 246.356 277.637L246.454 277.688ZM338.197 287.42C350.176 295.992 362.373 304.24 374.971 311.896C378.947 314.563 382.913 317.223 386.889 319.891C397.463 327.07 408.065 334.209 418.598 341.45C421.016 343.107 421.197 340.966 421.836 339.755C426.356 331.209 429.768 322.188 432.515 312.965C443.482 276.061 443.135 239.257 430.53 202.806C412.962 151.995 379.001 115.984 329.829 95.0054C291.421 78.6231 251.654 76.6551 211.297 88.1381C177.605 97.7178 149.405 115.792 126.055 141.756C123.922 144.128 124.195 145.139 126.748 146.813C143.925 158.126 161.007 169.581 178.114 180.987C179.181 181.699 180.188 182.554 181.58 182.558C186.061 185.679 190.541 188.801 195.021 191.922C203.626 198.235 212.486 204.146 221.619 209.667C227.976 213.893 234.334 218.128 240.691 222.354C250.899 229.818 261.448 236.782 272.198 243.425C276.841 246.523 281.484 249.62 286.118 252.72C292.49 257.374 298.911 261.966 305.858 265.757C310.655 268.877 315.444 271.998 320.243 275.127C320.529 275.149 320.734 275.293 320.864 275.548C326.657 279.508 332.423 283.465 338.197 287.42Z" fill="#E14C4B"/>
<path d="M190.563 239.24C192.262 239.279 193.403 240.452 194.713 241.282C210.597 251.32 225.489 262.746 240.386 274.153C241.478 274.991 242.309 276.331 243.928 276.325C244.658 276.981 245.104 278.16 246.454 277.688L246.365 277.635C246.498 277.996 246.52 278.502 246.779 278.697C254.214 284.267 261.685 289.794 269.127 295.354C271.621 297.216 274.327 297.538 277.251 296.655C288.899 304.316 300.579 311.918 312.186 319.64C339.484 337.8 366.7 356.082 394.058 374.151C397.276 376.283 397.134 377.562 394.746 380.196C371.403 405.93 343.271 423.858 309.721 433.313C269.501 444.645 229.899 442.618 191.617 426.386C144.534 406.426 111.16 372.341 92.9064 324.318C76.0238 279.896 77.3023 235.485 94.8517 191.454C96.1773 188.125 98.0278 184.999 99.3822 181.682C100.416 179.142 101.438 178.92 103.749 180.484C117.673 189.928 131.718 199.188 145.69 208.561C155.949 215.442 166.163 222.403 176.397 229.334C175.8 236.753 174.883 244.158 174.737 251.584C174.645 255.847 173.28 257.256 169.044 257.917C134.977 263.195 115.069 297.437 127.704 329.409C138.541 356.827 169.09 370.234 196.982 359.654C225.053 349.004 238.506 318.067 227.273 290.033C220.775 273.806 208.84 262.988 192.105 257.681C190.017 257.014 189.124 256.25 189.444 253.791C190.041 248.978 190.204 244.102 190.563 239.24Z" fill="#FEFDFD"/>
<path d="M221.629 209.674C212.504 204.151 203.635 198.234 195.031 191.929C201.788 190.527 208.558 189.193 215.299 187.715C219.154 186.866 220.869 184.119 220.335 180.386C219.879 177.175 217.992 174.47 214.357 174.834C204.066 175.867 193.947 177.94 184.026 180.872C183.129 181.139 182.392 181.991 181.582 182.567C180.19 182.563 179.182 181.707 178.115 180.995C161 169.591 143.925 158.126 126.75 146.822C124.195 145.139 123.922 144.128 126.057 141.764C149.399 115.81 177.607 97.7263 211.29 88.1482C251.647 76.6653 291.422 78.6316 329.822 95.0155C378.994 115.995 412.955 152.005 430.523 202.816C443.128 239.268 443.467 276.073 432.508 312.976C429.77 322.197 426.349 331.219 421.829 339.766C421.19 340.976 421.01 343.117 418.592 341.46C408.059 334.228 397.456 327.08 386.882 319.901C388.069 319.1 389.258 318.308 390.434 317.492C408.557 304.961 417.6 282.681 412.899 262.176C408.04 240.971 391.613 225.784 369.531 221.923C355.095 219.398 341.894 222.615 329.673 230.304C326.67 232.198 324.641 232.136 321.979 229.435C314.824 222.181 307.634 214.88 299.797 208.405C293.563 203.247 290.615 197.081 289.728 189.332C289.418 186.629 289.762 185.442 292.616 184.96C297.286 184.178 301.915 183.104 306.525 181.981C310.37 181.037 311.25 177.99 310.84 174.611C310.418 171.129 307.263 168.782 303.625 169.482C288.787 172.312 273.982 175.259 259.195 178.343C255.425 179.131 253.79 182.1 254.571 185.792C255.372 189.586 257.672 191.576 261.643 191.003C265.197 190.496 268.82 190.072 272.23 189.021C277.015 187.538 276.492 191.006 277.226 193.625C278.06 196.611 278.202 198.467 274.118 199.23C256.574 202.486 239.121 206.155 221.629 209.674Z" fill="#FEFDFD"/>
<path d="M221.629 209.674C239.111 206.148 256.574 202.486 274.098 199.216C278.181 198.454 278.031 196.599 277.206 193.611C276.48 190.991 276.994 187.524 272.209 189.008C268.801 190.067 265.177 190.482 261.623 190.989C257.66 191.56 255.352 189.573 254.55 185.779C253.778 182.085 255.403 179.109 259.175 178.33C273.963 175.254 288.767 172.299 303.604 169.469C307.244 168.777 310.399 171.124 310.819 174.598C311.221 177.978 310.351 181.032 306.505 181.967C301.903 183.088 297.267 184.172 292.595 184.947C289.74 185.42 289.397 186.615 289.708 189.319C290.595 197.067 293.543 203.233 299.777 208.391C307.613 214.867 314.804 222.167 321.959 229.422C324.63 232.129 326.658 232.182 329.653 230.29C341.88 222.591 355.083 219.383 369.511 221.91C391.602 225.769 408.02 240.958 412.879 262.162C417.58 282.667 408.528 304.95 390.414 317.478C389.238 318.294 388.04 319.088 386.861 319.887C382.886 317.22 378.92 314.56 374.944 311.892C377.131 310.54 379.46 309.37 381.471 307.798C399.578 293.641 402.254 268.581 387.286 250.954C374.772 236.218 355.615 234.662 339.686 241.505C335.793 243.181 335.811 244.111 338.95 247.13C346.918 254.795 354.886 262.459 362.882 270.092C364.992 272.102 367.183 273.945 366.147 277.401C365.048 281.073 362.384 282.503 358.881 283.176C351.96 284.505 345.07 285.986 338.176 287.407C332.402 283.452 326.637 279.495 320.862 275.54C327.331 274.284 333.801 273.036 340.265 271.754C341.831 271.442 343.336 271.036 341.334 269.172C336.626 264.775 331.927 260.385 327.263 255.945C326.176 254.911 325.409 254.73 324.77 256.293C322.296 262.343 319.525 268.313 320.243 275.127C315.446 272.007 310.657 268.885 305.86 265.766C308.12 258.648 310.922 251.775 315.483 245.774C316.591 244.311 316.306 243.364 315.048 242.18C308.17 235.697 301.321 229.183 294.554 222.591C292.521 220.61 291.745 220.782 291.266 223.634C289.63 233.349 287.847 243.031 286.12 252.728C281.477 249.631 276.834 246.533 272.199 243.434C273.689 235.017 275.135 226.6 276.708 218.201C277.2 215.593 276.534 214.995 273.909 215.563C262.854 217.929 251.763 220.117 240.684 222.364C234.344 218.134 227.988 213.908 221.629 209.674Z" fill="#333333"/>
<path d="M190.563 239.24C190.211 244.092 190.05 248.976 189.418 253.796C189.097 256.247 189.991 257.019 192.079 257.686C208.814 262.993 220.749 273.811 227.247 290.038C238.482 318.081 225.029 349.017 196.956 359.659C169.065 370.239 138.516 356.832 127.679 329.414C115.041 297.434 134.952 263.2 169.018 257.922C173.254 257.261 174.62 255.852 174.711 251.589C174.866 244.161 175.783 236.757 176.372 229.339C181.108 232.638 185.835 235.939 190.563 239.24ZM183.858 349.32C201.388 345.952 213.562 331.853 215.127 313.092C216.426 297.544 204.869 280.24 189.73 274.676C186.517 273.494 186.831 275.51 186.656 277.236C185.516 288.198 184.512 299.178 183.292 310.139C182.658 315.875 179.392 318.791 174.733 318.215C170.084 317.646 167.627 314.076 168.175 308.437C169.211 297.75 170.238 287.057 171.481 276.39C171.879 272.956 170.695 272.408 167.751 273.278C163.884 274.42 160.112 275.728 156.55 277.645C140.237 286.45 132.675 304.419 137.699 321.866C143.409 341.685 163.443 353.238 183.858 349.32Z" fill="#333333"/>
<path d="M338.197 287.42C345.099 285.998 351.989 284.517 358.902 283.19C362.404 282.517 365.06 281.088 366.168 277.415C367.204 273.959 365.013 272.115 362.903 270.106C354.906 262.473 346.939 254.808 338.971 247.143C335.832 244.124 335.82 243.184 339.706 241.519C355.636 234.675 374.792 236.231 387.307 250.967C402.274 268.595 399.598 293.655 381.492 307.811C379.481 309.384 377.143 310.555 374.965 311.906C362.373 304.24 350.177 295.992 338.197 287.42Z" fill="#FEFDFD"/>
<path d="M286.138 252.733C287.866 243.036 289.649 233.354 291.285 223.64C291.772 220.786 292.539 220.615 294.573 222.596C301.342 229.196 308.189 235.702 315.066 242.185C316.324 243.369 316.61 244.316 315.502 245.779C310.941 251.78 308.139 258.653 305.879 265.771C298.931 261.98 292.51 257.388 286.138 252.733Z" fill="#FEFDFD"/>
<path d="M240.703 222.369C251.78 220.113 262.873 217.934 273.928 215.568C276.555 215.009 277.219 215.598 276.727 218.206C275.154 226.605 273.71 235.03 272.218 243.439C261.459 236.789 250.91 229.825 240.703 222.369Z" fill="#FEFDFD"/>
<path d="M181.59 182.565C182.4 181.989 183.129 181.139 184.035 180.87C193.957 177.947 204.076 175.874 214.365 174.833C218 174.468 219.886 177.165 220.344 180.385C220.878 184.118 219.163 186.864 215.308 187.713C208.568 189.2 201.798 190.534 195.04 191.927C190.56 188.806 186.079 185.684 181.59 182.565Z" fill="#333333"/>
<path d="M277.242 296.657C274.327 297.538 271.62 297.216 269.118 295.355C261.676 289.796 254.206 284.269 246.771 278.699C246.511 278.504 246.49 277.998 246.356 277.637C249.006 277.768 251.038 279.3 253.118 280.673C261.173 285.995 269.204 291.331 277.242 296.657Z" fill="#333333"/>
<path d="M246.454 277.688C245.114 278.167 244.659 276.989 243.928 276.325C245.2 275.992 246.263 276.026 246.454 277.688Z" fill="#333333"/>
<path d="M320.262 275.132C319.544 268.318 322.315 262.349 324.788 256.298C325.427 254.735 326.196 254.925 327.282 255.95C331.946 260.391 336.646 264.789 341.353 269.177C343.354 271.041 341.859 271.445 340.284 271.76C333.82 273.041 327.35 274.289 320.881 275.545C320.753 275.298 320.548 275.154 320.262 275.132Z" fill="#FEFDFD"/>
<path d="M183.857 349.32C163.434 353.239 143.408 341.685 137.702 321.883C132.678 304.436 140.24 286.467 156.553 277.662C160.113 275.736 163.887 274.437 167.754 273.295C170.698 272.425 171.882 272.973 171.484 276.407C170.241 287.074 169.223 297.765 168.178 308.454C167.63 314.093 170.087 317.663 174.736 318.232C179.395 318.807 182.654 315.902 183.295 310.156C184.506 299.197 185.519 288.215 186.659 277.253C186.834 275.527 186.529 273.509 189.733 274.693C204.872 280.256 216.429 297.561 215.13 313.109C213.57 331.852 201.39 345.961 183.857 349.32Z" fill="#FEFDFD"/>
</svg>
