<svg width="71" height="44" viewBox="0 0 71 44" fill="none" xmlns="http://www.w3.org/2000/svg">
<g clip-path="url(#clip0_2_208)">
<path d="M58.2122 36.8818C58.1334 36.8937 58.0539 36.916 57.9752 36.916C54.7495 36.9111 51.5238 36.9034 48.2981 36.8971C46.8914 36.1854 45.6292 35.2765 44.5763 34.0905C44.4126 33.906 44.3601 34.0376 44.273 34.1476C43.7286 34.8378 43.1172 35.4632 42.4311 36.0099C42.038 36.3233 41.6208 36.6067 41.2145 36.9041C40.6494 37.1743 40.0918 37.4627 39.5163 37.7078C39.0072 37.9244 38.4876 38.127 37.9259 38.1716C37.9232 35.5147 37.9418 32.8578 37.9025 30.2009C37.8928 29.5574 38.0524 29.1681 38.5947 28.7656C41.6415 26.5015 41.4087 21.6759 38.1947 19.6764C38.1097 19.6235 38.0171 19.5169 37.9211 19.5615C37.7933 19.6214 37.8624 19.7691 37.8624 19.8756C37.8569 21.0477 37.8534 22.2191 37.8631 23.3912C37.8651 23.6057 37.7981 23.7206 37.6102 23.8251C36.8772 24.2318 36.1684 24.681 35.4277 25.0766C35.2757 25.1581 35.1832 25.1824 35.036 25.0947C34.3037 24.6573 33.5679 24.2255 32.828 23.8021C32.6559 23.7032 32.5951 23.5827 32.5972 23.3842C32.6069 22.4329 32.6014 21.4816 32.6014 20.5303C32.6014 20.1994 32.6014 19.8693 32.6014 19.494C32.4625 19.5678 32.3706 19.6103 32.2856 19.6639C28.8824 21.82 28.8768 26.9089 32.2787 29.0699C32.4459 29.1765 32.5544 29.267 32.5537 29.4941C32.5433 32.3947 32.5433 35.2953 32.5413 38.1953C31.7557 38.1201 31.0579 37.7754 30.3526 37.4613C29.9898 37.2997 29.6486 37.0873 29.2976 36.8978C28.2343 36.1868 27.2291 35.4068 26.4235 34.3963C26.3047 34.2472 26.2329 34.3043 26.1299 34.406C25.8764 34.6567 25.6201 34.9046 25.3541 35.1428C24.5561 35.8574 23.6407 36.3936 22.7059 36.8999C19.4795 36.9069 16.2525 36.9139 13.0261 36.9187C12.9473 36.9187 12.8685 36.8944 12.7891 36.8818C12.0195 36.5148 11.2705 36.0914 10.6156 35.5565C9.47772 34.6268 8.52777 33.5187 7.72635 32.2666C7.22201 31.4782 6.88763 30.6174 6.60299 29.7594C6.07654 28.1715 5.98742 26.507 6.18363 24.8363C6.53045 21.8813 7.85555 19.4313 10.0145 17.4402C11.2823 16.2709 12.7773 15.4679 14.4244 14.9699C16.039 14.4817 17.684 14.3661 19.3552 14.6008C21.1425 14.8522 22.7778 15.4929 24.2576 16.5299C24.4518 16.6657 24.5561 16.6936 24.7261 16.4826C25.3216 15.7458 25.9385 15.0256 26.559 14.309C26.7234 14.1196 26.7531 13.9531 26.664 13.7143C26.0539 12.0755 25.4584 10.432 24.858 8.78977C24.545 7.93315 24.2272 7.07793 23.9219 6.21784C23.8486 6.01239 23.7581 5.9135 23.5156 5.89678C22.319 5.8146 21.3974 5.24283 20.7197 4.24832C20.4972 3.92239 20.4364 3.5881 20.6147 3.23919C20.7881 2.89933 21.0879 2.75517 21.4679 2.75656C22.9415 2.76352 24.4152 2.76422 25.8888 2.7677C26.8906 2.76979 27.8917 2.77188 28.8934 2.77676C29.4613 2.77954 29.8323 3.05394 29.898 3.51498C29.9726 4.0387 29.6955 4.41686 29.129 4.57286C28.0423 4.87233 26.9597 5.18572 25.8681 5.46778C25.6062 5.53533 25.5655 5.60985 25.6581 5.85848C26.2688 7.49579 26.8657 9.13799 27.4661 10.7781C27.7238 11.4808 27.9849 12.1821 28.2329 12.8883C28.3 13.0784 28.3829 13.1453 28.5825 13.0694C29.7377 12.6285 30.9474 12.366 32.1233 11.992C33.7081 11.4885 35.3096 11.0393 36.9028 10.5622C39.3837 9.81979 41.866 9.08018 44.3435 8.32594C45.6555 7.92619 45.6596 7.89137 45.1974 6.62595C44.8416 5.65094 44.4941 4.67315 44.1473 3.69466C43.8917 2.97385 44.1328 2.47868 44.8416 2.21543C45.2617 2.05873 45.67 1.8693 46.088 1.70703C46.2952 1.62625 46.3823 1.4981 46.4058 1.27037C46.4783 0.560704 46.9716 0.158862 47.5678 0.0335035C48.1571 -0.0904617 48.7617 0.162344 49.0871 0.689544C49.6225 1.5566 49.1707 2.64304 48.2794 2.9056C47.791 3.04906 47.3253 3.24894 46.8984 3.5296C46.459 3.81862 46.4037 4.00109 46.5785 4.49207C46.8659 5.29854 47.1574 6.10362 47.4386 6.91218C47.4918 7.0647 47.5478 7.18031 47.7281 7.20608C47.9057 7.23185 47.9955 7.36765 48.0556 7.52922C48.5316 8.8225 49.0097 10.1151 49.4871 11.4077C49.5686 11.6277 49.59 11.8415 49.4028 12.0191C49.2971 12.1194 49.324 12.2197 49.3655 12.3353C49.6467 13.1202 49.9348 13.9023 50.1973 14.6941C50.2788 14.9393 50.4198 14.8376 50.5476 14.8063C51.4581 14.5855 52.3818 14.4748 53.318 14.4845C55.6331 14.5089 57.7624 15.1656 59.6768 16.47C62.0824 18.1094 63.6963 20.3464 64.4957 23.1663C64.8397 24.3801 64.9682 25.6261 64.8812 26.8838C64.667 29.9836 63.4787 32.6336 61.2347 34.7883C60.3373 35.6491 59.3134 36.3205 58.2122 36.8818ZM53.0741 17.1031C52.663 17.0871 52.0834 17.1734 51.5017 17.2612C51.2136 17.3044 51.1562 17.3991 51.2599 17.6867C52.1387 20.127 53.0023 22.5729 53.8679 25.0181C53.9266 25.1838 54.0061 25.3301 54.1229 25.4652C54.4821 25.8803 54.518 26.4444 54.2306 26.8817C53.946 27.3142 53.4092 27.5169 52.9332 27.3727C52.4115 27.2139 52.0903 26.7863 52.0806 26.2382C52.0779 26.0892 52.091 25.9436 52.0371 25.7932C51.15 23.3181 50.2643 20.843 49.3931 18.3623C49.2867 18.0586 49.1672 18.0711 48.9282 18.2035C47.5789 18.9507 46.4963 19.9815 45.6403 21.2678C45.4986 21.4809 45.4952 21.6376 45.6009 21.8646C47.0227 24.9178 47.1554 28.026 45.9532 31.1801C45.8696 31.3988 45.8821 31.5541 46.0251 31.7477C48.2248 34.7173 52.0779 36.0788 55.6545 35.0286C59.0467 34.0327 61.1829 31.7401 62.0748 28.2934C62.3595 27.1944 62.3754 26.0704 62.2199 24.9456C61.6154 20.5644 57.6684 17.1142 53.0741 17.1031ZM17.7378 17.1045C17.2079 17.1038 16.6836 17.1546 16.1592 17.2438C11.3963 18.053 8.01376 22.7895 8.7827 27.5809C9.40173 31.4378 12.1804 34.3851 15.9768 35.1923C18.0854 35.6408 20.1103 35.2947 22.0033 34.3294C23.0148 33.8133 23.8998 33.0668 24.6383 32.1711C24.7841 31.9943 24.8152 31.8591 24.7219 31.6467C24.1416 30.3312 23.7989 28.955 23.7498 27.5134C23.7423 27.2815 23.6607 27.2216 23.4417 27.2237C22.3142 27.232 21.186 27.232 20.0585 27.2209C19.8402 27.2188 19.7103 27.2829 19.5818 27.4688C19.0802 28.1959 18.3721 28.5406 17.5009 28.4334C16.2822 28.2837 15.4179 27.1812 15.5602 26.0216C15.7184 24.7367 16.7803 23.8878 18.0598 24.0368C18.2159 24.0549 18.314 24.0382 18.4177 23.9156C19.825 22.2463 21.2337 20.5783 22.6507 18.9173C22.7985 18.7439 22.7778 18.6722 22.5947 18.5559C21.11 17.6122 19.5017 17.0961 17.7378 17.1045ZM43.6208 10.8136C43.5186 10.8408 43.4074 10.8679 43.2968 10.8993C41.3181 11.4634 39.3402 12.0289 37.3615 12.593C34.7645 13.334 32.1682 14.0785 29.5677 14.8077C29.3017 14.8822 29.2748 14.9825 29.3715 15.2137C29.5228 15.5765 29.6631 15.9449 29.7826 16.3189C29.8607 16.562 29.9484 16.617 30.1957 16.4993C33.1202 15.1036 36.1158 14.933 39.1716 16.0153C39.4079 16.0988 39.5433 16.0564 39.7084 15.8836C40.6653 14.8822 41.6346 13.8918 42.597 12.8959C43.0377 12.4398 43.4744 11.978 43.9117 11.5184C44.0319 11.3916 44.0837 11.251 44.0063 11.0755C43.9324 10.9083 43.8053 10.831 43.6208 10.8136ZM48.0045 14.4246C47.5803 13.9406 47.8082 13.0819 47.0566 12.641C46.7263 12.4474 46.6593 12.5637 46.4845 12.7379C46.1412 13.0798 45.7847 13.4085 45.4392 13.7477C44.2938 14.871 43.1676 16.0146 42.0781 17.1936C42.0042 17.2737 41.7714 17.3531 42.0132 17.5307C42.6363 17.9897 43.2236 18.4918 43.7321 19.081C43.8309 19.1959 43.8979 19.2015 43.9974 19.074C44.9142 17.8936 46.0037 16.9074 47.2804 16.1358C47.3868 16.0717 47.4428 16.0167 47.4034 15.8648C47.2825 15.3996 47.4428 15.0249 47.8186 14.7359C47.8974 14.6746 47.9941 14.6182 48.0045 14.4246ZM19.91 25.2437C21.2136 25.2437 22.4192 25.2409 23.6255 25.2465C23.7982 25.2472 23.8645 25.1845 23.8908 25.0132C24.0863 23.7297 24.514 22.5234 25.1275 21.3855C25.2131 21.226 25.2062 21.1083 25.1081 20.9808C24.9188 20.7343 24.7192 20.4954 24.5354 20.2447C24.3917 20.0483 24.2956 20.0372 24.1257 20.2405C23.0908 21.4816 22.0399 22.7094 20.996 23.9428C20.6492 24.3537 20.3065 24.7687 19.91 25.2437ZM27.9628 17.826C27.8018 17.3893 27.6443 16.9304 27.4592 16.4826C27.408 16.3593 27.3265 16.4784 27.2802 16.532C27.075 16.7667 26.8602 16.9938 26.6757 17.2445C26.4816 17.5077 26.067 17.7187 26.1223 18.0224C26.1741 18.3072 26.5292 18.5308 26.7351 18.7933C26.8477 18.9375 26.9161 18.9069 27.0288 18.7954C27.2906 18.5364 27.5656 18.2905 27.8364 18.0412C27.8951 17.9862 27.9642 17.9409 27.9628 17.826Z" fill="#EDEDED"/>
<path d="M70.9893 36.9729C70.9319 36.8434 70.7613 36.9151 70.6431 36.9144C67.1314 36.9096 63.6204 36.9102 60.1087 36.9061C59.4765 36.9054 58.845 36.8894 58.2129 36.881C58.1341 36.8928 58.0547 36.9151 57.9759 36.9151C54.7502 36.9102 51.5245 36.9026 48.2988 36.8963C47.2349 36.8998 46.1702 36.9061 45.1063 36.9068C43.8095 36.9075 42.5127 36.904 41.216 36.9026C40.6508 37.1728 40.0933 37.4611 39.5178 37.7063C39.0086 37.9229 38.4891 38.1255 37.9274 38.1701C37.4845 38.3811 37.0023 38.4125 36.529 38.4612C35.1867 38.5984 33.8519 38.5768 32.542 38.1931C31.7565 38.1179 31.0587 37.7731 30.3533 37.459C29.9906 37.2975 29.6493 37.0851 29.2983 36.8956C27.1007 36.8963 24.9037 36.8963 22.706 36.897C19.4796 36.904 16.2525 36.9109 13.0261 36.9158C12.9474 36.9158 12.8686 36.8914 12.7891 36.8789C12.6869 36.8887 12.5853 36.9082 12.4831 36.9082C8.43041 36.9102 4.37842 36.9102 0.325738 36.9151C0.218652 36.9151 0.0694225 36.8504 0.010698 36.9701C-0.0362816 37.0662 0.08324 37.154 0.141274 37.2355C1.75862 39.4919 3.37458 41.7498 5.0009 43.9999H6.06968H12.1397H13.4876H17.2826H18.6519H19.4312H20.8012H23.0894H24.5244H26.7766H28.2123H30.1225H31.4815H36.3909H37.7498H42.2302H43.5891H49.5859H50.9552H51.7345H53.1046H56.9548H58.5314H64.9303H66.0011C67.6116 41.7679 69.2165 39.5316 70.82 37.294C70.8932 37.1951 71.0418 37.092 70.9893 36.9729Z" fill="#FFC32E"/>
</g>
<defs>
<clipPath id="clip0_2_208">
<rect width="71" height="44" fill="white"/>
</clipPath>
</defs>
</svg>
