<svg width="22" height="29" viewBox="0 0 22 29" fill="none" xmlns="http://www.w3.org/2000/svg">
<path d="M14.41 24.5286C13.4024 24.9275 12.298 25.0223 11.236 24.8012C10.1739 24.58 9.20194 24.0528 8.44257 23.286C7.6832 22.5193 7.17047 21.5473 6.96907 20.4927C6.76767 19.4381 6.88662 18.3482 7.3109 17.3604L10.912 20.9214L13.827 18.0375L10.2273 14.4765C11.2427 14.0482 12.3652 13.9329 13.448 14.1458C14.5307 14.3586 15.5233 14.8897 16.2958 15.6695C17.0684 16.4493 17.5849 17.4415 17.7778 18.5164C17.9708 19.5912 17.8312 20.6986 17.3773 21.6937L20.0351 24.322C21.3162 22.5038 22.0021 20.3405 22 18.1245C21.9802 14.6341 21.1667 11.1927 19.6196 8.05529C18.0725 4.91789 15.8315 2.16483 13.0625 0C13.6499 2.13049 13.9913 4.31995 14.08 6.52647C14.1289 7.16832 14.0444 7.81327 13.8317 8.42163C13.6191 9.02999 13.2829 9.58889 12.8437 10.064C12.4045 10.539 11.8716 10.9202 11.2779 11.184C10.6842 11.4479 10.0421 11.5888 9.39127 11.5981C8.72462 11.5965 8.06501 11.4632 7.45117 11.206C6.83733 10.9489 6.28162 10.5731 5.81668 10.1006C5.35173 9.62819 4.98691 9.06867 4.74364 8.4549C4.50037 7.84113 4.38355 7.18549 4.40003 6.52647L4.44128 6.03698C1.56379 9.42111 -0.00952613 13.7031 4.33979e-05 18.1245C0.000407452 20.0921 0.54047 22.0228 1.56271 23.7109C2.58495 25.3989 4.05108 26.7812 5.80494 27.7105C7.55881 28.6397 9.53473 29.0811 11.5222 28.9877C13.5098 28.8943 15.4344 28.2696 17.0913 27.18L14.41 24.5286Z" fill="#878888"/>
</svg>
