<svg width="31" height="52" viewBox="0 0 31 52" fill="none" xmlns="http://www.w3.org/2000/svg">
<path d="M10.8459 4.875C10.8459 3.58207 11.3357 2.34209 12.2076 1.42785C13.0795 0.513615 14.2621 0 15.4952 0C16.7282 0 17.9108 0.513615 18.7827 1.42785C19.6546 2.34209 20.1444 3.58207 20.1444 4.875C20.1444 6.16793 19.6546 7.40791 18.7827 8.32215C17.9108 9.23639 16.7282 9.75 15.4952 9.75C14.2621 9.75 13.0795 9.23639 12.2076 8.32215C11.3357 7.40791 10.8459 6.16793 10.8459 4.875ZM14.7203 35.75V48.75C14.7203 50.5477 13.3352 52 11.6208 52C9.90638 52 8.5213 50.5477 8.5213 48.75V26.0914L5.75113 30.9258C4.86971 32.4594 2.96158 32.957 1.49901 32.0328C0.0364362 31.1086 -0.438174 29.1078 0.443245 27.5742L6.09013 17.7227C7.77548 14.7875 10.7975 12.9898 14.0616 12.9898H16.9384C20.2025 12.9898 23.2245 14.7875 24.9099 17.7227L30.5568 27.5742C31.4382 29.1078 30.9636 31.1086 29.501 32.0328C28.0384 32.957 26.1303 32.4594 25.2489 30.9258L22.469 26.0914V48.75C22.469 50.5477 21.0839 52 19.3695 52C17.6551 52 16.27 50.5477 16.27 48.75V35.75H14.7203Z" fill="#D43839"/>
</svg>
