<svg width="52" height="52" viewBox="0 0 52 52" fill="none" xmlns="http://www.w3.org/2000/svg">
<path d="M23.4 39H28.6V28.6H39V23.4H28.6V13H23.4V23.4H13V28.6H23.4V39ZM26 52C22.4033 52 19.0233 51.3171 15.86 49.9512C12.6967 48.5853 9.945 46.7333 7.605 44.395C5.265 42.055 3.41293 39.3033 2.0488 36.14C0.684667 32.9767 0.00173333 29.5967 0 26C0 22.4033 0.682933 19.0233 2.0488 15.86C3.41467 12.6967 5.26673 9.945 7.605 7.605C9.945 5.265 12.6967 3.41293 15.86 2.0488C19.0233 0.684667 22.4033 0.00173333 26 0C29.5967 0 32.9767 0.682933 36.14 2.0488C39.3033 3.41467 42.055 5.26673 44.395 7.605C46.735 9.945 48.5879 12.6967 49.9538 15.86C51.3197 19.0233 52.0017 22.4033 52 26C52 29.5967 51.3171 32.9767 49.9512 36.14C48.5853 39.3033 46.7333 42.055 44.395 44.395C42.055 46.735 39.3033 48.5879 36.14 49.9538C32.9767 51.3197 29.5967 52.0017 26 52Z" fill="white"/>
</svg>
