<svg width="49" height="39" viewBox="0 0 49 39" fill="none" xmlns="http://www.w3.org/2000/svg">
<path d="M48.8731 13.8109L41.3182 37.8296C41.2422 38.0717 41.1147 38.2929 40.9451 38.4769C40.7755 38.6608 40.5681 38.8027 40.3384 38.8921C40.1087 38.9815 39.8626 39.016 39.6183 38.9931C39.374 38.9703 39.1377 38.8906 38.9272 38.76C38.8802 38.7303 33.6591 35.6085 24.4952 35.6085C15.3313 35.6085 10.1102 38.7303 10.0592 38.7621C9.84865 38.8915 9.61284 38.9701 9.36914 38.9922C9.12544 39.0143 8.88007 38.9793 8.65115 38.8898C8.42222 38.8003 8.21559 38.6585 8.04651 38.475C7.87743 38.2915 7.75021 38.071 7.67425 37.8296L0.123398 13.8046C-0.0287413 13.3236 -0.040465 12.8068 0.0897013 12.3189C0.219868 11.8311 0.486111 11.3941 0.854942 11.0629C1.22377 10.7317 1.67872 10.5212 2.16256 10.4577C2.6464 10.3942 3.13753 10.4806 3.57417 10.7061L13.8223 16.0045L22.3819 1.24105C22.6019 0.862375 22.9125 0.549134 23.2834 0.331696C23.6544 0.114258 24.0732 0 24.4993 0C24.9253 0 25.3442 0.114258 25.7151 0.331696C26.0861 0.549134 26.3967 0.862375 26.6167 1.24105L35.1762 16.0045L45.4285 10.7061C45.8656 10.4803 46.3574 10.394 46.8418 10.4581C47.3262 10.5222 47.7814 10.7338 48.1499 11.0662C48.5185 11.3987 48.7839 11.837 48.9126 12.3259C49.0413 12.8148 49.0276 13.3323 48.8731 13.8131V13.8109Z" fill="#555555"/>
</svg>
