<svg width="56" height="58" viewBox="0 0 56 58" fill="none" xmlns="http://www.w3.org/2000/svg">
<path d="M6.67934 57.1211C5.0093 57.1211 3.57913 56.5911 2.38884 55.5311C1.19856 54.4711 0.604426 53.1983 0.60645 51.7129V24.6717C0.60645 23.1844 1.20159 21.9108 2.39188 20.8507C3.58217 19.7907 5.01132 19.2616 6.67934 19.2634H18.8251V24.6717H6.67934V51.7129H49.1896V24.6717H37.0438V19.2634H49.1896C50.8596 19.2634 52.2898 19.7934 53.4801 20.8535C54.6704 21.9135 55.2645 23.1862 55.2625 24.6717V51.7129C55.2625 53.2001 54.6673 54.4738 53.477 55.5338C52.2868 56.5938 50.8576 57.1229 49.1896 57.1211H6.67934ZM27.9345 43.6005L15.7887 32.784L20.0397 28.9983L24.898 33.2573V0.334595H30.9709V33.2573L35.8292 28.9983L40.0802 32.784L27.9345 43.6005Z" fill="#B4891F"/>
</svg>
