<svg width="51" height="46" viewBox="0 0 51 46" fill="none" xmlns="http://www.w3.org/2000/svg">
<path d="M25.5223 23.0375C22.1126 23.0375 19.1937 21.9563 16.7656 19.794C14.3375 17.6316 13.1234 15.0322 13.1234 11.9957C13.1234 8.95918 14.3375 6.35975 16.7656 4.19739C19.1937 2.03504 22.1126 0.953857 25.5223 0.953857C28.9319 0.953857 31.8508 2.03504 34.2789 4.19739C36.707 6.35975 37.9211 8.95918 37.9211 11.9957C37.9211 15.0322 36.707 17.6316 34.2789 19.794C31.8508 21.9563 28.9319 23.0375 25.5223 23.0375ZM0.724609 45.1211V37.3919C0.724609 35.8276 1.17717 34.3894 2.08228 33.0773C2.98739 31.7651 4.18801 30.7649 5.68414 30.0767C8.88717 28.6504 12.1419 27.5803 15.4482 26.8663C18.7546 26.1522 22.1126 25.7961 25.5223 25.798C28.9319 25.798 32.2899 26.155 35.5963 26.869C38.9026 27.5831 42.1573 28.6523 45.3604 30.0767C46.8586 30.7668 48.0602 31.7679 48.9653 33.08C49.8704 34.3922 50.322 35.8295 50.3199 37.3919V45.1211H0.724609Z" fill="#24836F"/>
</svg>
