<svg width="65" height="52" viewBox="0 0 65 52" fill="none" xmlns="http://www.w3.org/2000/svg">
<path d="M40.6154 43.81L44.3366 34.6667H47.4886V30.3333H65V21.6667H47.4886V17.3333H44.3366L40.6154 8.19C38.733 3.25 33.786 0 28.445 0H18.376C13.035 0 8.08806 3.25 6.20559 8.19L0.952181 21.19C-0.317393 24.2667 -0.317393 27.7333 0.952181 30.81L6.20559 43.81C8.08806 48.75 13.035 52 18.376 52H28.445C33.786 52 38.733 48.75 40.6154 43.81ZM18.376 8.66667H28.445C30.2399 8.66667 31.816 9.75 32.4726 11.3967L34.8805 17.3333H11.9406L14.3484 11.3967C15.0051 9.75 16.6249 8.66667 18.376 8.66667ZM14.3484 40.6033L11.9406 34.6667H34.8805L32.4726 40.6033C31.816 42.25 30.1962 43.3333 28.445 43.3333H18.376C16.6249 43.3333 15.0051 42.25 14.3484 40.6033Z" fill="#280B4B"/>
</svg>
