<svg width="53" height="55" viewBox="0 0 53 55" fill="none" xmlns="http://www.w3.org/2000/svg">
<path d="M26.2034 54.1211L17.6001 46.395H6.12907C4.5518 46.395 3.20109 45.8903 2.07693 44.8807C0.952771 43.8712 0.391648 42.6591 0.39356 41.2443V5.1894C0.39356 3.77296 0.95564 2.55997 2.0798 1.55043C3.20396 0.540894 4.55372 0.0369838 6.12907 0.0387007H46.2776C47.8549 0.0387007 49.2056 0.54347 50.3298 1.55301C51.4539 2.56255 52.0151 3.77468 52.0131 5.1894V41.2443C52.0131 42.6608 51.4511 43.8738 50.3269 44.8833C49.2027 45.8928 47.853 46.3968 46.2776 46.395H34.8066L26.2034 54.1211ZM26.2034 25.7922C28.9755 25.7922 31.3414 24.9123 33.301 23.1525C35.2607 21.3927 36.2405 19.268 36.2405 16.7785C36.2405 14.289 35.2607 12.1643 33.301 10.4045C31.3414 8.64467 28.9755 7.76476 26.2034 7.76476C23.4312 7.76476 21.0653 8.64467 19.1057 10.4045C17.146 12.1643 16.1662 14.289 16.1662 16.7785C16.1662 19.268 17.146 21.3927 19.1057 23.1525C21.0653 24.9123 23.4312 25.7922 26.2034 25.7922ZM26.2034 46.9101L32.5124 41.2443H46.2776V38.2827C43.6967 36.0078 40.697 34.2162 37.2786 32.9079C33.8603 31.5996 30.1685 30.9446 26.2034 30.9429C22.2363 30.9429 18.5436 31.5979 15.1252 32.9079C11.7069 34.2179 8.70814 36.0095 6.12907 38.2827V41.2443H19.8943L26.2034 46.9101Z" fill="#B9BE55"/>
</svg>
