<svg width="77" height="46" viewBox="0 0 77 46" fill="none" xmlns="http://www.w3.org/2000/svg">
<path d="M37.4118 26.4177L45.0033 10.5028L41.5871 4.27768H33.4896V0.0524902H44.5604L46.8695 4.27768H69.0745L65.9114 14.1364H52.2784L54.3977 17.9955C56.7996 17.1236 59.4054 16.791 61.9857 17.0269C64.5659 17.2629 67.0414 18.0601 69.1943 19.3484C71.3472 20.6367 73.1114 22.3766 74.3315 24.4149C75.5517 26.4532 76.1904 28.7274 76.1914 31.0372C76.1914 38.8115 69.1061 45.1212 60.3759 45.1212C51.6458 45.1212 44.5604 38.8115 44.5604 31.0372C44.5604 26.6712 46.8062 22.7558 50.3173 20.1925L47.7235 15.5448L39.025 33.854H31.5917C30.9933 36.4649 29.5753 38.8711 27.5025 40.793C25.4297 42.7149 22.7871 44.0738 19.8818 44.7117C16.9764 45.3496 13.9274 45.2404 11.0889 44.3968C8.25044 43.5531 5.73896 42.0097 3.84617 39.9458C1.95338 37.8818 0.756958 35.382 0.395857 32.7368C0.034757 30.0915 0.523797 27.4092 1.80618 25.0015C3.08856 22.5939 5.11166 20.5596 7.64051 19.1349C10.1694 17.7103 13.1002 16.9538 16.0926 16.9532C24.285 16.9532 31.0224 22.5023 31.908 29.6288H33.7426L26.5308 14.1364H24.0003C22.7034 14.1364 21.628 13.1787 21.628 12.0239C21.628 10.869 22.7034 9.91126 24.0003 9.91126H32.6988C33.9957 9.91126 35.0711 10.869 35.0711 12.0239C35.0711 13.1787 33.9957 14.1364 32.6988 14.1364H31.8132L37.4118 26.4177ZM16.0926 21.1784C9.98777 21.1784 5.0217 25.6008 5.0217 31.0372C5.02746 33.4045 5.9885 35.6912 7.72959 37.4801C9.47068 39.2691 11.8758 40.4412 14.5064 40.7826C17.137 41.1241 19.8178 40.6123 22.0599 39.3404C24.302 38.0685 25.9561 36.1213 26.7206 33.854H12.9295V29.6288H27.0685C26.2777 24.8403 21.6596 21.1784 16.0926 21.1784ZM60.3759 21.1784C59.0158 21.1784 57.6873 21.4038 56.4853 21.7981L62.5901 32.9526L58.3199 34.8117L52.4682 24.1361C50.5071 25.9106 49.3051 28.3612 49.3051 31.0372C49.3051 36.4736 54.2712 40.896 60.3759 40.896C66.4807 40.896 71.4468 36.4736 71.4468 31.0372C71.4468 25.6008 66.4807 21.1784 60.3759 21.1784Z" fill="#56337E"/>
</svg>
