<svg width="52" height="52" viewBox="0 0 52 52" fill="none" xmlns="http://www.w3.org/2000/svg">
<path fill-rule="evenodd" clip-rule="evenodd" d="M13 0C9.55219 0 6.24558 1.36964 3.80761 3.80761C1.36964 6.24558 0 9.55219 0 13L0 39C0 42.4478 1.36964 45.7544 3.80761 48.1924C6.24558 50.6304 9.55219 52 13 52H39C42.4478 52 45.7544 50.6304 48.1924 48.1924C50.6304 45.7544 52 42.4478 52 39V13C52 9.55219 50.6304 6.24558 48.1924 3.80761C45.7544 1.36964 42.4478 0 39 0L13 0ZM36.7023 10.699C34.8824 9.82827 32.8373 9.5435 30.8488 9.88395C28.8603 10.2244 27.0264 11.1733 25.5998 12.5998C24.1733 14.0264 23.2244 15.8603 22.884 17.8488C22.5435 19.8373 22.8283 21.8824 23.699 23.7023L10.699 36.7023C10.0896 37.3121 9.74741 38.139 9.74772 39.0011C9.74802 39.8633 10.0908 40.69 10.7006 41.2994C11.3105 41.9088 12.1374 42.251 12.9995 42.2507C13.8617 42.2504 14.6883 41.9076 15.2977 41.2977L28.2977 28.2977C30.1176 29.1685 32.1627 29.4532 34.1512 29.1128C36.1397 28.7724 37.9736 27.8235 39.4002 26.3969C40.8267 24.9704 41.7756 23.1365 42.116 21.148C42.4565 19.1595 42.1717 17.1143 41.301 15.2945L34.801 21.7977C34.1916 22.4076 33.3649 22.7504 32.5028 22.7507C31.6406 22.751 30.8137 22.4088 30.2039 21.7994C29.594 21.19 29.2513 20.3633 29.251 19.5011C29.2507 18.639 29.5928 17.8121 30.2023 17.2023L36.7023 10.699Z" fill="#606417"/>
</svg>
