<svg width="54" height="43" viewBox="0 0 54 43" fill="none" xmlns="http://www.w3.org/2000/svg">
<path d="M6.15385 43C4.46154 43 3.01231 42.398 1.80616 41.194C0.600005 39.99 -0.00204606 38.5444 5.22398e-06 36.8571V6.14286C5.22398e-06 4.45358 0.603082 3.00693 1.80924 1.80293C3.01539 0.598933 4.46359 -0.0020424 6.15385 5.21465e-06H36.9231C37.9487 5.21465e-06 38.9108 0.230362 39.8092 0.691076C40.7077 1.15179 41.438 1.79167 42 2.61072L52.8462 17.9679C53.6154 19.0429 54 20.2202 54 21.5C54 22.7798 53.6154 23.9571 52.8462 25.0321L42 40.3893C41.4359 41.2083 40.7056 41.8482 39.8092 42.3089C38.9128 42.7696 37.9508 43 36.9231 43H6.15385Z" fill="#6F5109"/>
</svg>
