<svg width="68" height="56" viewBox="0 0 68 56" fill="none" xmlns="http://www.w3.org/2000/svg">
<mask id="mask0_67_31" style="mask-type:luminance" maskUnits="userSpaceOnUse" x="0" y="0" width="68" height="56">
<path d="M14.2778 54C17.534 54 20.657 52.7065 22.9595 50.4039C25.262 48.1014 26.5556 44.9785 26.5556 41.7222C26.5556 38.466 25.262 35.3431 22.9595 33.0405C20.657 30.738 17.534 29.4444 14.2778 29.4444C11.0215 29.4444 7.89861 30.738 5.59608 33.0405C3.29355 35.3431 2 38.466 2 41.7222C2 44.9785 3.29355 48.1014 5.59608 50.4039C7.89861 52.7065 11.0215 54 14.2778 54ZM52.5556 54C54.2627 54 55.9532 53.6637 57.5304 53.0104C59.1077 52.3571 60.5408 51.3995 61.7479 50.1924C62.9551 48.9852 63.9127 47.5521 64.566 45.9749C65.2193 44.3977 65.5556 42.7072 65.5556 41C65.5556 39.2928 65.2193 37.6023 64.566 36.0251C63.9127 34.4479 62.9551 33.0148 61.7479 31.8076C60.5408 30.6005 59.1077 29.6429 57.5304 28.9896C55.9532 28.3363 54.2627 28 52.5556 28C49.1077 28 45.8011 29.3696 43.3632 31.8076C40.9252 34.2456 39.5556 37.5522 39.5556 41C39.5556 44.4478 40.9252 47.7544 43.3632 50.1924C45.8011 52.6304 49.1077 54 52.5556 54Z" fill="white" stroke="white" stroke-width="4" stroke-linecap="round" stroke-linejoin="round"/>
<path d="M26.5513 2H39.5513L52.5556 41" stroke="white" stroke-width="4" stroke-linecap="round" stroke-linejoin="round"/>
<path d="M15.0817 41.0001L44.8734 17.5466M44.8734 15.0001H57.1107L59.7771 7.77783M10.666 16.4069H20.7771M20.7771 16.4445L25.5048 31.4971" stroke="white" stroke-width="4" stroke-linecap="round" stroke-linejoin="round"/>
</mask>
<g mask="url(#mask0_67_31)">
<path d="M-0.888672 -6.6665H68.4447V62.6668H-0.888672V-6.6665Z" fill="#8D3D9E"/>
</g>
</svg>
