<svg width="52" height="52" viewBox="0 0 52 52" fill="none" xmlns="http://www.w3.org/2000/svg">
<path d="M40.5028 6.3537L35.3028 3.61053C30.7372 1.20438 28.4544 0 26 0C23.5456 0 21.2628 1.20177 16.6972 3.61053L15.8626 4.05205L39.0624 17.3734L49.504 12.1222C47.8244 10.2098 45.1152 8.78075 40.5028 6.34847V6.3537ZM51.3448 15.5812L40.95 20.8063V28.7379C40.95 29.2576 40.7446 29.756 40.3789 30.1235C40.0132 30.4909 39.5172 30.6973 39 30.6973C38.4828 30.6973 37.9868 30.4909 37.6211 30.1235C37.2554 29.756 37.05 29.2576 37.05 28.7379V22.7631L27.95 27.335V52C29.8168 51.5324 31.941 50.4142 35.3028 48.6403L40.5028 45.8971C46.0954 42.9476 48.893 41.4741 50.4478 38.8223C52 36.1732 52 32.8736 52 26.2822V25.9765C52 21.0309 52 17.9377 51.3448 15.5812ZM24.05 52V27.3376L0.6552 15.5812C2.32458e-07 17.9377 0 21.0309 0 25.9713V26.2769C0 32.8736 -3.09944e-07 36.1732 1.5522 38.8223C3.107 41.4741 5.9046 42.9502 11.4972 45.8997L16.6972 48.6403C20.059 50.4142 22.1832 51.5324 24.05 52ZM2.496 12.1248L26 23.9335L34.8686 19.4791L11.765 6.21262L11.4972 6.3537C6.8874 8.78336 4.1756 10.2124 2.496 12.1274V12.1248Z" fill="#499E5D"/>
</svg>
