<svg width="52" height="52" viewBox="0 0 52 52" fill="none" xmlns="http://www.w3.org/2000/svg">
<path d="M26 26C28.7689 26 31.4757 25.2376 33.778 23.8091C36.0803 22.3806 37.8747 20.3503 38.9343 17.9749C39.9939 15.5994 40.2712 12.9856 39.731 10.4638C39.1908 7.94208 37.8574 5.6257 35.8995 3.80762C33.9416 1.98953 31.447 0.751405 28.7313 0.249797C26.0155 -0.251811 23.2006 0.00563268 20.6424 0.989572C18.0843 1.97351 15.8978 3.63975 14.3594 5.77759C12.8211 7.91543 12 10.4288 12 13C12 16.4478 13.475 19.7544 16.1005 22.1924C18.726 24.6304 22.287 26 26 26ZM26 29.7143C17.3225 29.7143 0 34.6914 0 44.5714V52H52V44.5714C52 34.6914 34.6775 29.7143 26 29.7143Z" fill="#F88A28"/>
</svg>
