<svg width="83" height="83" viewBox="0 0 83 83" fill="none" xmlns="http://www.w3.org/2000/svg">
<rect width="83" height="83" rx="16" fill="#FFD747"/>
<path d="M43.75 41.8937L48.8125 46.9562C49.225 47.3687 49.4312 47.8847 49.4312 48.5042C49.4312 49.1237 49.225 49.6577 48.8125 50.1062C48.3625 50.5562 47.8277 50.7812 47.2082 50.7812C46.5887 50.7812 46.0547 50.5562 45.6062 50.1062L40.825 45.325C40.3 44.8 39.9062 44.2187 39.6437 43.5812C39.3812 42.9437 39.25 42.25 39.25 41.5V34.75C39.25 34.1125 39.466 33.5777 39.898 33.1457C40.33 32.7137 40.864 32.4985 41.5 32.5C42.1375 32.5 42.6722 32.716 43.1042 33.148C43.5362 33.58 43.7515 34.114 43.75 34.75V41.8937ZM41.5 23.5C42.1375 23.5 42.6722 23.716 43.1042 24.148C43.5362 24.58 43.7515 25.114 43.75 25.75C43.75 26.3875 43.534 26.9222 43.102 27.3542C42.67 27.7862 42.136 28.0015 41.5 28C40.8625 28 40.3277 27.784 39.8957 27.352C39.4637 26.92 39.2485 26.386 39.25 25.75C39.25 25.1125 39.466 24.5777 39.898 24.1458C40.33 23.7137 40.864 23.4985 41.5 23.5ZM59.5 41.5C59.5 42.1375 59.284 42.6722 58.852 43.1042C58.42 43.5362 57.886 43.7515 57.25 43.75C56.6125 43.75 56.0777 43.534 55.6457 43.102C55.2137 42.67 54.9985 42.136 55 41.5C55 40.8625 55.216 40.3277 55.648 39.8957C56.08 39.4637 56.614 39.2485 57.25 39.25C57.8875 39.25 58.4222 39.466 58.8542 39.898C59.2862 40.33 59.5015 40.864 59.5 41.5ZM41.5 55C42.1375 55 42.6722 55.216 43.1042 55.648C43.5362 56.08 43.7515 56.614 43.75 57.25C43.75 57.8875 43.534 58.4222 43.102 58.8542C42.67 59.2862 42.136 59.5015 41.5 59.5C40.8625 59.5 40.3277 59.284 39.8957 58.852C39.4637 58.42 39.2485 57.886 39.25 57.25C39.25 56.6125 39.466 56.0777 39.898 55.6457C40.33 55.2137 40.864 54.9985 41.5 55ZM28 41.5C28 42.1375 27.784 42.6722 27.352 43.1042C26.92 43.5362 26.386 43.7515 25.75 43.75C25.1125 43.75 24.5777 43.534 24.1458 43.102C23.7137 42.67 23.4985 42.136 23.5 41.5C23.5 40.8625 23.716 40.3277 24.148 39.8957C24.58 39.4637 25.114 39.2485 25.75 39.25C26.3875 39.25 26.9222 39.466 27.3542 39.898C27.7862 40.33 28.0015 40.864 28 41.5ZM41.5 64C38.3875 64 35.4625 63.409 32.725 62.227C29.9875 61.045 27.6062 59.4422 25.5812 57.4187C23.5563 55.3937 21.9535 53.0125 20.773 50.275C19.5925 47.5375 19.0015 44.6125 19 41.5C19 38.3875 19.591 35.4625 20.773 32.725C21.955 29.9875 23.5577 27.6062 25.5812 25.5812C27.6062 23.5563 29.9875 21.9535 32.725 20.773C35.4625 19.5925 38.3875 19.0015 41.5 19C44.6125 19 47.5375 19.591 50.275 20.773C53.0125 21.955 55.3937 23.5577 57.4187 25.5812C59.4437 27.6062 61.0472 29.9875 62.2292 32.725C63.4112 35.4625 64.0015 38.3875 64 41.5C64 44.6125 63.409 47.5375 62.227 50.275C61.045 53.0125 59.4422 55.3937 57.4187 57.4187C55.3937 59.4437 53.0125 61.0472 50.275 62.2292C47.5375 63.4112 44.6125 64.0015 41.5 64ZM41.5 59.5C46.525 59.5 50.7812 57.7562 54.2687 54.2687C57.7562 50.7812 59.5 46.525 59.5 41.5C59.5 36.475 57.7562 32.2187 54.2687 28.7312C50.7812 25.2437 46.525 23.5 41.5 23.5C36.475 23.5 32.2187 25.2437 28.7312 28.7312C25.2437 32.2187 23.5 36.475 23.5 41.5C23.5 46.525 25.2437 50.7812 28.7312 54.2687C32.2187 57.7562 36.475 59.5 41.5 59.5Z" fill="#121418"/>
</svg>
