<svg width="83" height="83" viewBox="0 0 83 83" fill="none" xmlns="http://www.w3.org/2000/svg">
<rect width="83" height="83" rx="16" fill="#06EFBE"/>
<path d="M41.5 33.3182C36.9795 33.3182 33.3182 36.9795 33.3182 41.5C33.3182 46.0205 36.9795 49.6818 41.5 49.6818C46.0205 49.6818 49.6818 46.0205 49.6818 41.5C49.6818 36.9795 46.0205 33.3182 41.5 33.3182ZM59.7864 39.4545C59.323 35.3066 57.463 31.4395 54.5118 28.4882C51.5605 25.537 47.6934 23.677 43.5455 23.2136V19H39.4545V23.2136C35.3066 23.677 31.4395 25.537 28.4882 28.4882C25.537 31.4395 23.677 35.3066 23.2136 39.4545H19V43.5455H23.2136C23.677 47.6934 25.537 51.5605 28.4882 54.5118C31.4395 57.463 35.3066 59.323 39.4545 59.7864V64H43.5455V59.7864C47.6934 59.323 51.5605 57.463 54.5118 54.5118C57.463 51.5605 59.323 47.6934 59.7864 43.5455H64V39.4545H59.7864ZM41.5 55.8182C33.5841 55.8182 27.1818 49.4159 27.1818 41.5C27.1818 33.5841 33.5841 27.1818 41.5 27.1818C49.4159 27.1818 55.8182 33.5841 55.8182 41.5C55.8182 49.4159 49.4159 55.8182 41.5 55.8182Z" fill="#121418"/>
</svg>
